<svg width="20" height="28" viewBox="0 0 30 42" fill="none" xmlns="http://www.w3.org/2000/svg">
<g clip-path="url(#clip0_989_2)">
<path d="M14.9019 0C6.67165 0 0 6.70382 0 14.9739C0 25.3219 14.9019 41.3072 14.9019 41.3072C14.9019 41.3072 29.8039 25.3219 29.8039 14.9739C29.8039 6.70382 23.1323 0 14.9019 0ZM14.9019 23.4935C13.2251 23.4935 11.5858 22.9938 10.1915 22.0576C8.79712 21.1215 7.71041 19.7909 7.06865 18.2342C6.42694 16.6774 6.259 14.9644 6.58618 13.3118C6.91335 11.6591 7.72082 10.1411 8.90659 8.94959C10.0924 7.75812 11.6031 6.94671 13.2478 6.61794C14.8925 6.28923 16.5974 6.45794 18.1466 7.10276C19.6959 7.74759 21.0201 8.83959 21.9518 10.2406C22.8834 11.6416 23.3806 13.2888 23.3806 14.9739C23.3805 17.2334 22.4872 19.4002 20.8971 20.9979C19.3071 22.5956 17.1506 23.4933 14.9019 23.4935Z" fill="#000"/>
</g>
<defs>
<clipPath id="clip0_989_2">
<rect width="20" height="28" fill="white"/>
</clipPath>
</defs>
</svg>
